:SAMPLES-PER-SECOND 30
:FULLY-SPECIFIED
:DEGREES
399
root  -4.7193 40.7918 0.902546 176.774 -80.4981 -179.543
RightUpLeg  7.07562 -2.36217 -3.98632
RightLeg  1.00279 -9.21282 -1.46029
RightFoot  -2.25925 -0.503647 6.28014
RightToes  -3.10096e-008 1.75238e-005 3.56266e-009
Spine  -13.797 1.44136 4.24498
Spine1  18.1585 1.29952 -1.7396
HEad  -14.3075 4.57369 -3.73913
LeftShoulder1  3.22994 -6.75742 -25.3259
LeftArm  -14.1583 8.41477 -34.3148
LeftForeArm  46.5642 -77.787 -61.6465
LeftHand  -0.423895 -2.95123 6.1422
RightShoulder  3.45801 7.24011 26.1583
RightArm  -28.1329 -9.82525 25.402
RightForeArm  -34.3671 60.5924 23.1706
RightHand  -0.17875 2.83573 -2.72471
LeftUpLeg  9.58258 1.61187 0.235437
LeftLeg  -1.8484 21.3345 -1.38017
LeftFoot  -3.91889 0.110627 -1.33058
LeftToes  4.7633e-008 1.48299e-008 1.30754e-009
400
root  -4.53128 40.7832 0.978935 176.257 -80.1512 -178.832
RightUpLeg  6.16118 -2.05791 -3.79697
RightLeg  1.67948 -9.22197 -1.68307
RightFoot  -2.25474 -0.512236 6.42114
RightToes  -3.10096e-008 1.75238e-005 3.56266e-009
Spine  -13.2515 0.402279 2.86894
Spine1  18.3722 -0.0112977 -0.588326
HEad  -15.4554 4.32249 -4.20742
LeftShoulder1  3.49912 -7.37003 -26.0631
LeftArm  -3.7203 0.724106 -35.4406
LeftForeArm  62.0573 -78.9637 -77.365
LeftHand  -0.472909 -3.46298 6.45452
RightShoulder  3.51615 7.14211 27.0177
RightArm  -23.8677 -11.0401 28.0825
RightForeArm  -33.9122 58.4937 21.1981
RightHand  -0.272843 3.117 -3.96869
LeftUpLeg  8.68592 1.67031 0.296417
LeftLeg  -0.954426 21.598 -1.10064
LeftFoot  -4.09406 0.107319 -1.27871
LeftToes  4.7633e-008 1.48299e-008 1.30754e-009
401
root  -4.32897 40.7587 1.06132 175.5 -79.4373 -177.844
RightUpLeg  5.16251 -1.56145 -3.45281
RightLeg  2.30095 -9.15536 -1.97689
RightFoot  -2.36396 -0.506871 6.34155
RightToes  -3.10096e-008 1.75238e-005 3.56266e-009
Spine  -12.4172 -0.817661 1.41293
Spine1  18.5702 -1.49764 0.452639
HEad  -17.4448 5.29027 -4.4313
LeftShoulder1  3.82447 -8.14436 -26.7266
LeftArm  5.99206 -8.78759 -37.2437
LeftForeArm  73.4958 -79.2264 -88.4302
LeftHand  -0.512807 -3.82807 6.72331
RightShoulder  3.82908 7.54543 28.7085
RightArm  -19.1403 -12.0782 29.6355
RightForeArm  -36.5027 56.3822 19.6163
RightHand  -0.277818 2.38044 -4.3488
LeftUpLeg  7.84321 1.91331 0.507588
LeftLeg  -0.185478 21.9239 -0.986524
LeftFoot  -4.41818 0.104927 -1.23732
LeftToes  4.7633e-008 1.48299e-008 1.30754e-009
402
root  -4.09734 40.7384 1.15902 175.742 -78.2548 -177.84
RightUpLeg  3.98639 -1.07179 -3.29691
RightLeg  2.92356 -8.67957 -2.24059
RightFoot  -2.42836 -0.497396 6.19237
RightToes  -3.10096e-008 1.75238e-005 3.56266e-009
Spine  -10.7701 -1.95471 -0.986655
Spine1  18.2038 -3.2029 2.62784
HEad  -18.6787 6.4303 -4.62363
LeftShoulder1  4.24022 -9.01761 -27.8091
LeftArm  15.1645 -18.4585 -39.6222
LeftForeArm  82.531 -79.1053 -98.0567
LeftHand  -0.509326 -4.11366 6.4942
RightShoulder  4.0615 7.87828 29.7545
RightArm  -14.1233 -13.2329 30.9635
RightForeArm  -37.5683 54.318 18.1953
RightHand  -0.321835 2.05671 -5.19083
LeftUpLeg  6.8778 2.09472 0.516728
LeftLeg  0.738688 22.7552 -0.805113
LeftFoot  -4.513 0.111153 -1.32818
LeftToes  4.7633e-008 1.48299e-008 1.30754e-009
403
root  -3.83955 40.7123 1.28881 176.377 -76.7316 -178.434
RightUpLeg  2.78609 -0.573034 -3.32754
RightLeg  3.78833 -7.71333 -2.55679
RightFoot  -2.48563 -0.502979 6.26951
RightToes  -3.10096e-008 1.75238e-005 3.56266e-009
Spine  -8.8889 -3.1176 -3.12163
Spine1  18.662 -4.89451 4.32195
HEad  -21.0659 8.71369 -5.34199
LeftShoulder1  4.33196 -9.47363 -27.305
LeftArm  23.6078 -28.0649 -44.187
LeftForeArm  84.9884 -78.8938 -102.199
LeftHand  -0.432057 -4.39109 5.41238
RightShoulder  4.36131 8.43633 30.6103
RightArm  -9.61155 -13.8617 32.3618
RightForeArm  -37.7232 52.1213 16.8297
RightHand  -0.397023 2.04318 -6.38478
LeftUpLeg  6.2896 2.04411 0.23032
LeftLeg  1.2466 24.2271 -0.620044
LeftFoot  -4.50741 0.118617 -1.43858
LeftToes  4.7633e-008 1.48299e-008 1.30754e-009
404
root  -3.55401 40.6832 1.45073 176.947 -74.9852 -179.098
RightUpLeg  1.51781 -0.0604929 -3.49683
RightLeg  4.857 -6.49111 -2.73184
RightFoot  -2.45235 -0.50557 6.28159
RightToes  -3.10096e-008 1.75238e-005 3.56266e-009
Spine  -5.89623 -4.08265 -5.3588
Spine1  18.4114 -6.50702 6.20235
HEad  -23.7646 10.5941 -6.23518
LeftShoulder1  4.21771 -9.79882 -25.5664
LeftArm  31.0795 -36.1181 -51.0679
LeftForeArm  81.3129 -78.9885 -98.8668
LeftHand  -0.38441 -4.98403 4.61579
RightShoulder  4.55234 8.67856 31.4649
RightArm  -6.14755 -14.0786 33.8661
RightForeArm  -36.9622 49.3856 15.2733
RightHand  -0.383161 2.15811 -6.08032
LeftUpLeg  5.82729 2.01061 -0.139252
LeftLeg  1.66138 26.0879 -0.487829
LeftFoot  -4.453 0.108562 -1.27902
LeftToes  4.7633e-008 1.48299e-008 1.30754e-009
